<?xml version="1.0" encoding="utf-8"?>
<svg xmlns="http://www.w3.org/2000/svg" xmlns:xlink="http://www.w3.org/1999/xlink" style="margin: auto; background: rgb(255, 255, 255); display: block; shape-rendering: auto;" width="204px" height="204px" viewBox="0 0 100 100" preserveAspectRatio="xMidYMid">
<g transform="rotate(0 50 50)">
  <rect x="49.5" y="11.5" rx="0.5" ry="0.91" width="1" height="7" fill="#8b989b">
    <animate attributeName="opacity" values="1;0" keyTimes="0;1" dur="0.7575757575757576s" begin="-0.7154882154882154s" repeatCount="indefinite"></animate>
  </rect>
</g><g transform="rotate(20 50 50)">
  <rect x="49.5" y="11.5" rx="0.5" ry="0.91" width="1" height="7" fill="#8b989b">
    <animate attributeName="opacity" values="1;0" keyTimes="0;1" dur="0.7575757575757576s" begin="-0.6734006734006733s" repeatCount="indefinite"></animate>
  </rect>
</g><g transform="rotate(40 50 50)">
  <rect x="49.5" y="11.5" rx="0.5" ry="0.91" width="1" height="7" fill="#8b989b">
    <animate attributeName="opacity" values="1;0" keyTimes="0;1" dur="0.7575757575757576s" begin="-0.6313131313131313s" repeatCount="indefinite"></animate>
  </rect>
</g><g transform="rotate(60 50 50)">
  <rect x="49.5" y="11.5" rx="0.5" ry="0.91" width="1" height="7" fill="#8b989b">
    <animate attributeName="opacity" values="1;0" keyTimes="0;1" dur="0.7575757575757576s" begin="-0.5892255892255892s" repeatCount="indefinite"></animate>
  </rect>
</g><g transform="rotate(80 50 50)">
  <rect x="49.5" y="11.5" rx="0.5" ry="0.91" width="1" height="7" fill="#8b989b">
    <animate attributeName="opacity" values="1;0" keyTimes="0;1" dur="0.7575757575757576s" begin="-0.5471380471380471s" repeatCount="indefinite"></animate>
  </rect>
</g><g transform="rotate(100 50 50)">
  <rect x="49.5" y="11.5" rx="0.5" ry="0.91" width="1" height="7" fill="#8b989b">
    <animate attributeName="opacity" values="1;0" keyTimes="0;1" dur="0.7575757575757576s" begin="-0.505050505050505s" repeatCount="indefinite"></animate>
  </rect>
</g><g transform="rotate(120 50 50)">
  <rect x="49.5" y="11.5" rx="0.5" ry="0.91" width="1" height="7" fill="#8b989b">
    <animate attributeName="opacity" values="1;0" keyTimes="0;1" dur="0.7575757575757576s" begin="-0.4629629629629629s" repeatCount="indefinite"></animate>
  </rect>
</g><g transform="rotate(140 50 50)">
  <rect x="49.5" y="11.5" rx="0.5" ry="0.91" width="1" height="7" fill="#8b989b">
    <animate attributeName="opacity" values="1;0" keyTimes="0;1" dur="0.7575757575757576s" begin="-0.42087542087542085s" repeatCount="indefinite"></animate>
  </rect>
</g><g transform="rotate(160 50 50)">
  <rect x="49.5" y="11.5" rx="0.5" ry="0.91" width="1" height="7" fill="#8b989b">
    <animate attributeName="opacity" values="1;0" keyTimes="0;1" dur="0.7575757575757576s" begin="-0.3787878787878788s" repeatCount="indefinite"></animate>
  </rect>
</g><g transform="rotate(180 50 50)">
  <rect x="49.5" y="11.5" rx="0.5" ry="0.91" width="1" height="7" fill="#8b989b">
    <animate attributeName="opacity" values="1;0" keyTimes="0;1" dur="0.7575757575757576s" begin="-0.33670033670033667s" repeatCount="indefinite"></animate>
  </rect>
</g><g transform="rotate(200 50 50)">
  <rect x="49.5" y="11.5" rx="0.5" ry="0.91" width="1" height="7" fill="#8b989b">
    <animate attributeName="opacity" values="1;0" keyTimes="0;1" dur="0.7575757575757576s" begin="-0.2946127946127946s" repeatCount="indefinite"></animate>
  </rect>
</g><g transform="rotate(220 50 50)">
  <rect x="49.5" y="11.5" rx="0.5" ry="0.91" width="1" height="7" fill="#8b989b">
    <animate attributeName="opacity" values="1;0" keyTimes="0;1" dur="0.7575757575757576s" begin="-0.2525252525252525s" repeatCount="indefinite"></animate>
  </rect>
</g><g transform="rotate(240 50 50)">
  <rect x="49.5" y="11.5" rx="0.5" ry="0.91" width="1" height="7" fill="#8b989b">
    <animate attributeName="opacity" values="1;0" keyTimes="0;1" dur="0.7575757575757576s" begin="-0.21043771043771042s" repeatCount="indefinite"></animate>
  </rect>
</g><g transform="rotate(260 50 50)">
  <rect x="49.5" y="11.5" rx="0.5" ry="0.91" width="1" height="7" fill="#8b989b">
    <animate attributeName="opacity" values="1;0" keyTimes="0;1" dur="0.7575757575757576s" begin="-0.16835016835016833s" repeatCount="indefinite"></animate>
  </rect>
</g><g transform="rotate(280 50 50)">
  <rect x="49.5" y="11.5" rx="0.5" ry="0.91" width="1" height="7" fill="#8b989b">
    <animate attributeName="opacity" values="1;0" keyTimes="0;1" dur="0.7575757575757576s" begin="-0.12626262626262624s" repeatCount="indefinite"></animate>
  </rect>
</g><g transform="rotate(300 50 50)">
  <rect x="49.5" y="11.5" rx="0.5" ry="0.91" width="1" height="7" fill="#8b989b">
    <animate attributeName="opacity" values="1;0" keyTimes="0;1" dur="0.7575757575757576s" begin="-0.08417508417508417s" repeatCount="indefinite"></animate>
  </rect>
</g><g transform="rotate(320 50 50)">
  <rect x="49.5" y="11.5" rx="0.5" ry="0.91" width="1" height="7" fill="#8b989b">
    <animate attributeName="opacity" values="1;0" keyTimes="0;1" dur="0.7575757575757576s" begin="-0.04208754208754208s" repeatCount="indefinite"></animate>
  </rect>
</g><g transform="rotate(340 50 50)">
  <rect x="49.5" y="11.5" rx="0.5" ry="0.91" width="1" height="7" fill="#8b989b">
    <animate attributeName="opacity" values="1;0" keyTimes="0;1" dur="0.7575757575757576s" begin="0s" repeatCount="indefinite"></animate>
  </rect>
</g>
<!-- [ldio] generated by https://loading.io/ --></svg>